<svg width="78" height="41" viewBox="0 0 78 41" fill="none" xmlns="http://www.w3.org/2000/svg">
<path id="Vector" fill-rule="evenodd" clip-rule="evenodd" d="M55.4603 0L56.855 3.075L65.4436 22.0375L57.3694 22.0374L53.5109 13.527L49.6524 22.0374H46.1199L54.7264 3.075C55.1509 2.13124 55.3981 1.11773 55.4556 0.084908L55.4603 0ZM33.3826 30.75L38.8002 38.1649L42.1656 30.75H45.7023L43.2512 36.1561C43.1243 36.5272 43.0554 36.9252 43.0554 37.3393C43.0554 39.3601 44.6971 40.9985 46.7229 40.9999L44.193 41H40.835L40.5597 40.9999V40.9969C35.6031 40.8999 30.9688 38.4972 28.0419 34.4914L25.87 31.5187L25.3083 30.75H33.3826ZM18.9427 22.0374H18.9601C24.0272 22.0319 28.7876 19.614 31.7724 15.5289L39.1685 5.40609C40.3735 3.98056 42.1773 3.07499 44.1931 3.07499H40.8533C35.7866 3.08084 31.0265 5.49875 28.0419 9.58358L25.87 12.5562L18.9427 22.0374ZM17.0709 22.0374H9.03341V11.5189C9.4699 11.6386 9.89945 11.7855 10.3194 11.959C11.6463 12.5072 12.852 13.3108 13.8676 14.3237C14.8832 15.3368 15.6888 16.5393 16.2384 17.8628C16.788 19.1864 17.0709 20.6049 17.0709 22.0374ZM9.03341 30.75V40.9999H17.1077V30.75H9.03341ZM61.3195 30.75L63.7701 36.1551C63.8973 36.5265 63.9663 36.9248 63.9663 37.3393C63.9663 39.3601 62.3246 40.9985 60.2988 40.9999L65.9666 41H77.7844C75.6876 41 73.7646 39.8376 72.7941 37.9837L71.8916 36.2593L69.7422 31.5187L69.3937 30.75H61.3195ZM5.36329 41C7.38937 41 9.03201 39.3624 9.03341 37.3418V41H5.36329ZM17.1077 40.9999H20.7677C18.7487 40.9946 17.113 39.3631 17.1077 37.3492V40.9999ZM9.03341 3.07499H12.4277C15.0123 3.07499 17.1077 5.16493 17.1077 7.743V15.4482C16.572 14.5607 15.9288 13.7394 15.1911 13.0036C14.1328 11.948 12.8982 11.0865 11.5442 10.4572C9.99071 9.56001 9.03341 7.90481 9.03341 6.11315V3.07499ZM75.5259 28.2881H78V28.7048H75.056V24.0949H77.9217V24.5116H75.5259V26.1003H77.765V26.5106H75.5259V28.2881ZM73.6996 28.2881H71.5454V24.0949H71.0755V28.7048H73.6996V28.2881ZM68.3022 28.7048H67.8322V26.7189L66.1023 24.0949H66.6898L68.0803 26.3282L69.4837 24.0949H70.0321L68.3022 26.7189V28.7048ZM63.0249 28.7048H63.4949V24.5116H65.1628V24.0949H61.3642V24.5116H63.0249V28.7048ZM60.0294 24.8371C59.9293 24.6982 59.801 24.5875 59.6443 24.505C59.4876 24.4182 59.2982 24.3748 59.0763 24.3748C58.9632 24.3748 58.8479 24.3922 58.7303 24.4269C58.6129 24.4616 58.5062 24.5159 58.4105 24.5897C58.3148 24.6592 58.2364 24.7482 58.1755 24.8567C58.1189 24.9651 58.0907 25.0932 58.0907 25.2408C58.0907 25.3884 58.1189 25.5099 58.1755 25.6054C58.2321 25.7009 58.3061 25.7834 58.3974 25.8528C58.4932 25.918 58.5998 25.9722 58.7173 26.0156C58.8391 26.059 58.9653 26.1024 59.0959 26.1458C59.2569 26.198 59.418 26.2544 59.579 26.3151C59.7443 26.3759 59.8923 26.4562 60.0229 26.5561C60.1534 26.6515 60.2601 26.7752 60.3428 26.9272C60.4254 27.0748 60.4668 27.2636 60.4668 27.4937C60.4668 27.7237 60.4211 27.9234 60.3297 28.0927C60.2427 28.2577 60.1273 28.3943 59.9837 28.5029C59.8445 28.6114 59.6834 28.6917 59.5007 28.7438C59.3222 28.7959 59.1416 28.8219 58.9589 28.8219C58.8196 28.8219 58.6803 28.8068 58.541 28.7763C58.4018 28.7503 58.269 28.709 58.1428 28.6526C58.0166 28.5962 57.8992 28.5246 57.7904 28.4378C57.6815 28.3509 57.5858 28.2511 57.5032 28.1383L57.9078 27.8388C58.008 28.0037 58.1472 28.1426 58.3257 28.2555C58.5084 28.364 58.7217 28.4182 58.9654 28.4182C59.0829 28.4182 59.2025 28.4009 59.3244 28.3662C59.4462 28.3271 59.555 28.2706 59.6508 28.1969C59.7509 28.1187 59.8314 28.0254 59.8923 27.9169C59.9576 27.804 59.9903 27.6738 59.9903 27.5263C59.9903 27.3656 59.9576 27.2333 59.8923 27.1291C59.8314 27.0205 59.7487 26.9315 59.6443 26.8621C59.5398 26.7883 59.4202 26.7276 59.2852 26.6798C59.1504 26.632 59.0089 26.5842 58.8609 26.5366C58.7086 26.4888 58.5585 26.4346 58.4105 26.3737C58.2626 26.313 58.1298 26.2348 58.0123 26.1394C57.8948 26.0395 57.7991 25.918 57.7251 25.7747C57.6554 25.6315 57.6206 25.4557 57.6206 25.2473C57.6206 25.0259 57.6642 24.835 57.7512 24.6743C57.8425 24.5137 57.9601 24.3813 58.1037 24.2772C58.2473 24.173 58.4062 24.0971 58.5803 24.0493C58.7543 24.0015 58.9262 23.9776 59.0959 23.9776C59.4092 23.9776 59.6769 24.0341 59.8989 24.1469C60.1208 24.2555 60.2883 24.3857 60.4015 24.5376L60.0294 24.8371ZM54.4265 28.7048H54.8965V24.5116H56.5564V24.0949H52.7762V24.5116H54.4265V28.7048ZM49.2537 28.7048H48.7838V24.0949H50.1415C50.3679 24.0949 50.5768 24.1166 50.7682 24.16C50.964 24.2034 51.1316 24.2751 51.2709 24.3749C51.4145 24.4704 51.5255 24.5963 51.6038 24.7525C51.6821 24.9088 51.7213 25.0998 51.7213 25.3255C51.7213 25.4948 51.6908 25.6489 51.6299 25.7878C51.569 25.9267 51.4862 26.0483 51.3818 26.1525C51.2774 26.2523 51.1533 26.3326 51.0097 26.3933C50.8661 26.4541 50.7094 26.4931 50.5397 26.5106L51.891 28.7048H51.3165L50.0371 26.5496H49.2537V28.7048ZM49.2537 26.1459H50.0698C50.4484 26.1459 50.7399 26.0786 50.9445 25.9441C51.149 25.8052 51.2513 25.599 51.2513 25.3255C51.2513 25.1736 51.223 25.0455 51.1664 24.9413C51.1098 24.8372 51.0315 24.7525 50.9314 24.6874C50.8314 24.6223 50.7094 24.5746 50.5658 24.5442C50.4222 24.5138 50.2634 24.4986 50.0893 24.4986H49.2537V26.1459ZM43.1586 28.7048H43.6744L44.177 27.4937H46.5662L47.0753 28.7048H47.5976L45.6132 24.0949H45.1562L43.1586 28.7048ZM46.39 27.064H44.3532L45.3716 24.6158L46.39 27.064ZM36.2488 28.7048H35.733L37.7306 24.0949H38.1876L40.172 28.7048H39.6497L39.1406 27.4937H36.7514L36.2488 28.7048ZM36.9276 27.064H38.9644L37.946 24.6158L36.9276 27.064ZM33.3354 28.0992H33.3224L31.821 24.0949H31.3118L33.0743 28.7048H33.5704L35.3395 24.0949H34.8368L33.3354 28.0992ZM30.3529 26.3998C30.3529 26.7514 30.292 27.0748 30.1702 27.3699C30.0483 27.6651 29.8786 27.9212 29.661 28.1383C29.4477 28.3509 29.1931 28.518 28.8972 28.6396C28.6056 28.7612 28.2879 28.8219 27.9441 28.8219C27.6004 28.8219 27.2805 28.7612 26.9846 28.6396C26.693 28.518 26.4384 28.3509 26.2208 28.1383C26.0075 27.9212 25.84 27.6651 25.7182 27.3699C25.5963 27.0748 25.5354 26.7514 25.5354 26.3998C25.5354 26.0482 25.5963 25.7248 25.7182 25.4296C25.84 25.1344 26.0075 24.8805 26.2208 24.6678C26.4384 24.4508 26.693 24.2815 26.9846 24.16C27.2805 24.0384 27.6004 23.9776 27.9441 23.9776C28.2879 23.9776 28.6056 24.0384 28.8972 24.16C29.1931 24.2815 29.4477 24.4508 29.661 24.6678C29.8786 24.8805 30.0483 25.1344 30.1702 25.4296C30.292 25.7248 30.3529 26.0482 30.3529 26.3998ZM29.8568 26.3998C29.8568 26.1307 29.8133 25.8746 29.7263 25.6315C29.6392 25.3884 29.513 25.1757 29.3477 24.9934C29.1823 24.8067 28.9799 24.6592 28.7406 24.5506C28.5056 24.4421 28.2401 24.3879 27.9441 24.3879C27.6482 24.3879 27.3806 24.4421 27.1412 24.5506C26.9063 24.6592 26.706 24.8067 26.5407 24.9934C26.3753 25.1757 26.2491 25.3884 26.1621 25.6315C26.075 25.8746 26.0315 26.1307 26.0315 26.3998C26.0315 26.6689 26.075 26.925 26.1621 27.1681C26.2491 27.4112 26.3753 27.6239 26.5407 27.8062C26.706 27.9885 26.9063 28.1339 27.1412 28.2425C27.3806 28.3509 27.6482 28.4052 27.9441 28.4052C28.2401 28.4052 28.5056 28.3509 28.7406 28.2425C28.9799 28.1339 29.1823 27.9885 29.3477 27.8062C29.513 27.6239 29.6392 27.4112 29.7263 27.1681C29.8133 26.925 29.8568 26.6689 29.8568 26.3998ZM23.4355 28.0211H23.4225L20.7329 24.0949H20.1455V28.7048H20.6155V24.7395H20.6285L23.318 28.7048H23.9055V24.0949H23.4355V28.0211ZM14.8159 28.7048H14.3002L16.2977 24.0949H16.7546L18.7391 28.7048H18.2169L17.7077 27.4937H15.3185L14.8159 28.7048ZM15.4948 27.064H17.5314L16.5131 24.6158L15.4948 27.064ZM11.4965 24.0949H10.1191V28.7048H11.4899C11.7555 28.7048 11.9948 28.6744 12.208 28.6137C12.4213 28.5529 12.6019 28.4683 12.7499 28.3597C12.8978 28.2468 13.0109 28.1123 13.0893 27.956C13.172 27.7954 13.2134 27.6196 13.2134 27.4286C13.2134 27.09 13.1132 26.8231 12.9131 26.6277C12.7172 26.4281 12.4692 26.3109 12.1689 26.2762V26.2631C12.4169 26.2067 12.6149 26.0895 12.7629 25.9115C12.9109 25.7292 12.9848 25.5165 12.9848 25.2734C12.9848 25.0433 12.9392 24.8523 12.8478 24.7005C12.7607 24.5485 12.6454 24.4292 12.5018 24.3424C12.3625 24.2512 12.2036 24.1882 12.0253 24.1535C11.8468 24.1145 11.6706 24.0949 11.4965 24.0949ZM11.5357 26.1134H10.5891V24.4986H11.4051C11.5574 24.4986 11.701 24.5138 11.836 24.5442C11.9708 24.5702 12.0884 24.6158 12.1884 24.6809C12.2885 24.7461 12.3669 24.8306 12.4234 24.9349C12.4844 25.0347 12.5149 25.1584 12.5149 25.306C12.5149 25.4579 12.4844 25.586 12.4234 25.6902C12.3669 25.7943 12.2907 25.879 12.195 25.9441C12.0992 26.0049 11.9926 26.0483 11.8751 26.0743C11.7619 26.1003 11.6488 26.1134 11.5357 26.1134ZM11.4639 28.3011H10.5891V26.4975H11.5487C11.9274 26.4975 12.2189 26.5735 12.4234 26.7254C12.6323 26.873 12.7368 27.0987 12.7368 27.4025C12.7368 27.5632 12.702 27.7021 12.6323 27.8192C12.5627 27.9321 12.4692 28.0255 12.3516 28.0992C12.2385 28.1687 12.1036 28.2208 11.9469 28.2555C11.7946 28.2859 11.6335 28.3011 11.4639 28.3011ZM4.86292 28.7048H4.34722L6.34474 24.0949H6.80169L8.78615 28.7048H8.26394L7.75476 27.4937H5.36557L4.86292 28.7048ZM5.54181 27.064H7.5785L6.56016 24.6158L5.54181 27.064ZM0.476534 26.1654H0.470006V24.0949H0V28.7048H0.470006V26.2501H0.476534L2.78739 28.7048H3.47935L1.01834 26.185L3.34879 24.0949H2.67642L0.476534 26.1654Z" fill="#FFBFCF"/>
</svg>
