<svg width="30" height="30" viewBox="0 0 30 30" fill="none" xmlns="http://www.w3.org/2000/svg">
<path d="M15 30C23.2843 30 30 23.2843 30 15C30 6.71573 23.2843 0 15 0C6.71573 0 0 6.71573 0 15C0 23.2843 6.71573 30 15 30Z" fill="#272727"/>
<path d="M6.03964 14.1064C6.03964 14.1064 13.5396 11.0284 16.1408 9.9446C17.1379 9.51107 20.5194 8.12379 20.5194 8.12379C20.5194 8.12379 22.0801 7.51685 21.95 8.99084C21.9067 9.59778 21.5599 11.7221 21.213 14.0197C20.6928 17.2712 20.1292 20.8261 20.1292 20.8261C20.1292 20.8261 20.0425 21.8232 19.3055 21.9966C18.5685 22.17 17.3547 21.3897 17.1379 21.2163C16.9645 21.0862 13.8865 19.1353 12.7593 18.1816C12.4558 17.9215 12.109 17.4012 12.8026 16.7943C14.3633 15.3637 16.2275 13.5862 17.3547 12.459C17.8749 11.9388 18.3951 10.7249 16.2275 12.1989C13.1495 14.3232 10.1148 16.3174 10.1148 16.3174C10.1148 16.3174 9.42114 16.751 8.12056 16.3608C6.81998 15.9706 5.30264 15.4504 5.30264 15.4504C5.30264 15.4504 4.26218 14.8001 6.03964 14.1064Z" fill="#FFFCF9"/>
</svg>
