<svg width="30" height="30" viewBox="0 0 30 30" fill="none" xmlns="http://www.w3.org/2000/svg">
<g clip-path="url(#clip0_168_3667)">
<path fill-rule="evenodd" clip-rule="evenodd" d="M30 15.0026C30 6.71547 23.2845 0 15.0026 0C6.71547 0 0 6.71547 0 15.0026C0 23.2845 6.72076 30 15.0026 30C23.2845 30 30 23.2845 30 15.0026ZM15.0345 6.49844C17.2889 6.49844 19.4056 7.37691 20.9985 8.96978C22.5914 10.5627 23.4698 12.6794 23.4698 14.9338C23.4698 19.5801 19.6861 23.3638 15.0398 23.3638H15.0345C13.6268 23.3638 12.2404 23.0093 11.0073 22.3372L6.53564 23.5067L7.73162 19.1409C6.99075 17.8655 6.60444 16.4155 6.60444 14.9285C6.60444 10.2769 10.3882 6.49844 15.0345 6.49844ZM11.4624 20.956C12.542 21.5963 13.775 21.935 15.0345 21.935C18.8976 21.935 22.041 18.7916 22.0516 14.9179C22.0516 13.0446 21.3213 11.2824 19.9983 9.95937C18.6754 8.63639 16.9184 7.9061 15.0451 7.9061C11.1767 7.9061 8.03326 11.0495 8.03326 14.9126C8.02797 16.2409 8.39841 17.5268 9.10224 18.6434L9.26628 18.908L8.55717 21.4958L11.2084 20.8025L11.4624 20.956ZM17.4423 16.0081C17.6328 16.0768 18.6701 16.5849 18.8817 16.6907C18.9194 16.7095 18.9546 16.7267 18.9876 16.7427C19.14 16.8167 19.2423 16.8664 19.2945 16.9447C19.3474 17.0294 19.3474 17.4528 19.1728 17.9449C18.9982 18.4371 18.1515 18.8869 17.7493 18.9451C17.3841 18.998 16.9237 19.0192 16.421 18.8604C16.1141 18.7652 15.7225 18.6329 15.2197 18.4159C13.2394 17.5622 11.9015 15.638 11.6556 15.2843C11.6393 15.2609 11.6278 15.2443 11.6212 15.2354C11.6193 15.2329 11.6172 15.23 11.6149 15.2269C11.4884 15.0566 10.7586 14.0738 10.7586 13.0552C10.7586 12.0922 11.2284 11.5853 11.4482 11.3483C11.4651 11.3301 11.4806 11.3134 11.4942 11.2982C11.6847 11.0866 11.9123 11.0336 12.0551 11.0336C12.1927 11.0336 12.3356 11.0336 12.4573 11.0389C12.4729 11.0395 12.4891 11.0393 12.5057 11.039C12.6307 11.037 12.7842 11.0346 12.9336 11.3988C12.972 11.4918 13.0224 11.6145 13.0782 11.7504C13.2764 12.233 13.5432 12.8826 13.5845 12.9652C13.6374 13.071 13.6692 13.1927 13.6004 13.3356C13.5911 13.3543 13.5823 13.372 13.5739 13.3891C13.5203 13.4982 13.4802 13.5797 13.3887 13.6849C13.364 13.7146 13.3387 13.7454 13.3132 13.7765C13.2296 13.8783 13.1442 13.9823 13.0712 14.0553L13.0662 14.0606C12.967 14.1649 12.8615 14.2758 12.9812 14.484C13.1029 14.6957 13.5263 15.3836 14.1507 15.9445C14.8245 16.5474 15.4091 16.8012 15.7056 16.9299C15.7631 16.9549 15.8098 16.9752 15.8442 16.9924C16.0558 17.0982 16.1776 17.0823 16.2993 16.9394L16.3084 16.9287C16.4399 16.7744 16.8266 16.3206 16.9661 16.1139C17.1089 15.9022 17.2518 15.9393 17.4423 16.0081Z" fill="#272727"/>
</g>
<defs>
<clipPath id="clip0_168_3667">
<rect width="30" height="30" fill="white"/>
</clipPath>
</defs>
</svg>
